<?xml version="1.0" standalone="no"?><!DOCTYPE svg PUBLIC "-//W3C//DTD SVG 1.1//EN" "http://www.w3.org/Graphics/SVG/1.1/DTD/svg11.dtd"><svg t="1734314482411" class="icon" viewBox="0 0 1024 1024" version="1.1" xmlns="http://www.w3.org/2000/svg" p-id="10238" xmlns:xlink="http://www.w3.org/1999/xlink" width="200" height="200"><path d="M512 961.67c245.894 0 445.217-199.324 445.217-445.218S757.894 71.235 512 71.235 66.783 270.559 66.783 516.452 266.106 961.67 512 961.67z m0 44.521c-270.47 0-489.74-219.27-489.74-489.739S241.53 26.713 512 26.713s489.74 219.27 489.74 489.74S782.47 1006.19 512 1006.19z m0-756.87a33.391 33.391 0 0 1 33.391 33.392v467.478a33.391 33.391 0 1 1-66.782 0V282.713A33.391 33.391 0 0 1 512 249.322z m-233.74 233.74h467.48a33.391 33.391 0 1 1 0 66.782H278.26a33.391 33.391 0 1 1 0-66.782z" fill="#666666" p-id="10239"></path></svg>