<?xml version="1.0" standalone="no"?><!DOCTYPE svg PUBLIC "-//W3C//DTD SVG 1.1//EN" "http://www.w3.org/Graphics/SVG/1.1/DTD/svg11.dtd"><svg t="1734314498586" class="icon" viewBox="0 0 1024 1024" version="1.1" xmlns="http://www.w3.org/2000/svg" p-id="11248" xmlns:xlink="http://www.w3.org/1999/xlink" width="200" height="200"><path d="M891.904 191.488q14.336 0 27.648 6.144t21.504 16.384 13.312 22.528 6.144 27.648v432.128q0 14.336-6.144 26.624t-13.312 23.552-21.504 15.36-27.648 6.144H68.608q-15.36 0-27.648-6.144t-21.504-15.36-14.336-23.552T0 696.32V264.192q0-14.336 5.12-27.648t14.336-22.528 21.504-16.384 27.648-6.144h823.296zM896 264.192q0-6.144-4.096-8.192H68.608q-4.096 2.048-4.096 8.192v432.128q0 5.12 4.096 7.168h823.296Q896 701.44 896 696.32V264.192zM192.512 384H128V319.488h64.512V384zM128 447.488h128V512H128V447.488z m576.512 0h128V512h-128V447.488z m0 128h128V640h-128V575.488zM128 575.488h128V640H128V575.488z m192.512 0H640V640H320.512V575.488z m0-191.488H256V319.488h64.512V384z m0 63.488H384V512h-63.488V447.488z m128 0H512V512h-63.488V447.488z m128 0H640V512h-63.488V447.488z m-128-63.488H384V319.488h64.512V384z m128 0H512V319.488h64.512V384z m128 0H640V319.488h64.512V384zM768 319.488h64.512V384H768V319.488z" p-id="11249"></path></svg>