<?xml version="1.0" standalone="no"?><!DOCTYPE svg PUBLIC "-//W3C//DTD SVG 1.1//EN" "http://www.w3.org/Graphics/SVG/1.1/DTD/svg11.dtd"><svg t="1734314463687" class="icon" viewBox="0 0 1024 1024" version="1.1" xmlns="http://www.w3.org/2000/svg" p-id="9263" xmlns:xlink="http://www.w3.org/1999/xlink" width="200" height="200"><path d="M533.333333 896C332.8 896 170.666667 733.866667 170.666667 533.333333S332.8 170.666667 533.333333 170.666667 896 332.8 896 533.333333 733.866667 896 533.333333 896z m0-42.666667c174.933333 0 320-145.066667 320-320S708.266667 213.333333 533.333333 213.333333 213.333333 358.4 213.333333 533.333333 358.4 853.333333 533.333333 853.333333zM426.666667 640h213.333333v42.666667h-213.333333v-42.666667z m42.666666-213.333333v85.333333h-42.666666v-85.333333h42.666666z m170.666667 0v85.333333h-42.666667v-85.333333h42.666667z" fill="#444444" p-id="9264"></path></svg>