<?xml version="1.0" standalone="no"?><!DOCTYPE svg PUBLIC "-//W3C//DTD SVG 1.1//EN" "http://www.w3.org/Graphics/SVG/1.1/DTD/svg11.dtd"><svg t="1734337505217" class="icon" viewBox="0 0 1024 1024" version="1.1" xmlns="http://www.w3.org/2000/svg" p-id="13352" xmlns:xlink="http://www.w3.org/1999/xlink" width="200" height="200"><path d="M930.742857 652.8c-18.285714 0-32.914286 14.628571-32.914286 32.914286V932.571429c0 9.142857-7.314286 16.457143-16.457142 16.457142H140.8c-9.142857 0-16.457143-7.314286-16.457143-16.457142V685.714286c0-18.285714-14.628571-32.914286-32.914286-32.914286s-32.914286 14.628571-32.914285 32.914286V932.571429c0 45.714286 36.571429 82.285714 82.285714 82.285714h740.571429c45.714286 0 82.285714-36.571429 82.285714-82.285714V685.714286c0-18.285714-14.628571-32.914286-32.914286-32.914286zM1013.028571 288.914286v-3.657143c0-9.142857-1.828571-18.285714-5.485714-27.428572l-1.828571-5.485714c-1.828571-1.828571-115.2-197.485714-117.028572-201.142857C877.714286 27.428571 861.257143 9.142857 808.228571 9.142857H215.771429C168.228571 9.142857 148.114286 31.085714 133.485714 56.685714L20.114286 248.685714l-1.828572 3.657143c-5.485714 10.971429-9.142857 21.942857-9.142857 34.742857v175.542857c0 87.771429 67.657143 157.257143 149.942857 157.257143 45.714286 0 89.6-21.942857 117.028572-58.514285 29.257143 36.571429 71.314286 58.514286 117.028571 58.514285 45.714286 0 89.6-21.942857 117.028572-58.514285 29.257143 36.571429 71.314286 58.514286 117.028571 58.514285 45.714286 0 89.6-21.942857 117.028571-58.514285 29.257143 36.571429 71.314286 58.514286 117.028572 58.514285 82.285714 0 149.942857-71.314286 149.942857-157.257143l1.828571-173.714285z m-822.857142-199.314286c7.314286-10.971429 12.8-14.628571 25.6-14.628571h590.628571c12.8 0 16.457143 0 25.6 14.628571 23.771429 38.4 45.714286 76.8 69.485714 115.2H120.685714c34.742857-56.685714 58.514286-96.914286 69.485715-115.2z m758.857142 373.028571c0 49.371429-38.4 89.6-84.114285 89.6-47.542857 0-84.114286-40.228571-84.114286-89.6v-25.6c-3.657143-18.285714-16.457143-34.742857-34.742857-34.742857-18.285714 0-32.914286 14.628571-32.914286 32.914286v25.6c0 49.371429-38.4 89.6-84.114286 89.6-47.542857 0-84.114286-40.228571-84.114285-89.6v-25.6c0-18.285714-14.628571-32.914286-32.914286-32.914286s-32.914286 14.628571-32.914286 32.914286v25.6c0 49.371429-38.4 89.6-84.114285 89.6S310.857143 510.171429 310.857143 460.8v-25.6c0-18.285714-14.628571-32.914286-32.914286-32.914286s-32.914286 14.628571-32.914286 32.914286v25.6c0 49.371429-38.4 89.6-84.114285 89.6-47.542857 0-84.114286-40.228571-84.114286-89.6v-171.885714c0-7.314286 5.485714-14.628571 14.628571-14.628572h842.971429c9.142857 0 14.628571 7.314286 14.628571 14.628572v173.714285z" fill="#B24B4B" p-id="13353"></path></svg>