<?xml version="1.0" standalone="no"?><!DOCTYPE svg PUBLIC "-//W3C//DTD SVG 1.1//EN" "http://www.w3.org/Graphics/SVG/1.1/DTD/svg11.dtd"><svg t="1734053091112" class="icon" viewBox="0 0 1024 1024" version="1.1" xmlns="http://www.w3.org/2000/svg" p-id="9280" xmlns:xlink="http://www.w3.org/1999/xlink" width="200" height="200"><path d="M835.59424 321.60768a316.35968 316.35968 0 0 0-18.41664-56.20736c-16.83968-38.92224-41.02144-73.8304-71.74144-103.76704a334.58688 334.58688 0 0 0-106.20928-69.81632c-41.1904-16.93184-84.92032-25.5744-129.95072-25.5744-45.0304 0-88.66816 8.64256-129.86368 25.5744a333.78304 333.78304 0 0 0-106.2144 69.81632c-30.72 29.93664-54.89664 64.93696-71.73632 103.76704a324.63872 324.63872 0 0 0-18.76992 57.43104c-68.2496 20.94592-118.1696 85.79072-118.1696 162.3296 0 45.0304 17.62816 87.53664 49.74592 119.73632 23.64928 23.64928 52.80256 39.53664 84.39808 46.08 17.44896 3.67104 33.85856-9.68704 33.68448-27.48928l-1.57184-230.66624c0-72.17664 28.88704-140.07296 81.24928-191.1296C364.74368 150.3744 434.82112 122.09664 509.26592 122.09664c74.53184 0 144.52224 28.27776 197.15072 79.50848 52.44928 51.13856 81.2544 118.95296 81.2544 191.1296v240.52736c0 72.17664-28.89216 140.07296-81.2544 191.13472a277.98528 277.98528 0 0 1-90.33216 58.98752 109.5936 109.5936 0 0 0 5.23776-36.03968c-1.31072-58.38848-48.6144-105.94816-106.99776-107.52512-61.96736-1.57184-112.84992 48.34816-112.84992 109.96736 0 59.96032 48.1792 108.83584 107.86816 109.96736h4.97664c43.2896-0.60928 85.26848-9.15968 124.88704-25.56928a333.6192 333.6192 0 0 0 106.20928-69.81632c30.72-29.94176 54.90176-64.93184 71.74144-103.77216 15.88224-36.57216 24.61184-75.22816 26.18368-115.03104 24.17664-8.20224 46.34624-21.9904 65.10592-40.84224 32.11776-32.11776 49.74592-74.624 49.74592-119.74144 0.02048-78.01856-52.08064-143.99488-122.5984-163.37408z m-681.78432 243.7632c-21.5552-21.56032-33.42336-50.0992-33.42336-80.20992 0-41.89696 21.9904-78.464 54.72256-98.18112 0 1.92-0.09216 3.83488-0.09216 5.84704v189.38368a118.25152 118.25152 0 0 1-21.20704-16.83968z m359.3984 338.62144h-2.44736c-29.49632-0.34816-53.40672-24.43776-53.40672-54.10816 0-29.8496 24.25856-54.10816 54.10816-54.10816s54.10816 24.25856 54.10816 54.10816c-0.09216 29.31712-23.38816 53.1456-52.36224 54.10816z m355.72736-338.62144a115.30752 115.30752 0 0 1-25.30816 19.19488V392.82688c0-2.70336 0-5.49888-0.08704-8.20736 34.90816 18.93888 58.81856 56.90368 58.81856 100.54144 0 30.11072-11.86816 58.6496-33.42336 80.20992z" fill="#333333" p-id="9281"></path></svg>