<?xml version="1.0" standalone="no"?><!DOCTYPE svg PUBLIC "-//W3C//DTD SVG 1.1//EN" "http://www.w3.org/Graphics/SVG/1.1/DTD/svg11.dtd"><svg t="1734160395404" class="icon" viewBox="0 0 1024 1024" version="1.1" xmlns="http://www.w3.org/2000/svg" p-id="8276" xmlns:xlink="http://www.w3.org/1999/xlink" width="200" height="200"><path d="M876.16 905.216a35.84 35.84 0 0 1-35.2 36.48H114.816a35.84 35.84 0 0 1-35.2-36.48V154.112a35.84 35.84 0 0 1 35.2-36.48H577.92v-82.24H114.88C51.52 35.328 0 88.576 0 154.112v751.04C0 970.752 51.52 1024 114.88 1024h726.016c63.36 0 114.816-53.248 114.816-118.848V424.96H876.16v480.32z" p-id="8277"></path><path d="M546.112 70.592c0 19.52 15.424 45.696 34.304 45.696 18.816 0 34.24-20.8 34.24-40.32s-15.552-40.64-34.368-40.64a34.752 34.752 0 0 0-34.176 35.264zM921.6 459.008a34.752 34.752 0 0 0 34.112-35.264c0-19.52-19.84-35.84-39.68-35.84s-39.616 12.736-39.616 35.84c0 23.04 26.304 35.264 45.184 35.264zM886.848 64c26.88-7.68 48.128-3.328 63.616 12.864 15.552 16.256 18.752 37.12 9.536 62.72l-557.184 576.32-91.328 19.008 18.24-94.592L886.848 64z" p-id="8278"></path></svg>