<?xml version="1.0" standalone="no"?><!DOCTYPE svg PUBLIC "-//W3C//DTD SVG 1.1//EN" "http://www.w3.org/Graphics/SVG/1.1/DTD/svg11.dtd"><svg t="1734052952106" class="icon" viewBox="0 0 1024 1024" version="1.1" xmlns="http://www.w3.org/2000/svg" p-id="5624" xmlns:xlink="http://www.w3.org/1999/xlink" width="200" height="200"><path d="M889.883073 1024H134.116927c-34.74183 0-62.980179-28.191404-62.980179-62.933233v-472.353841c0-34.789774 28.238349-62.980179 62.980179-62.980179h125.95936V268.279801C260.076287 129.170646 372.890845 16.407029 512 16.407029c139.109155 0 251.922714 112.763617 251.922714 251.872772v157.451947h125.95936c34.74183 0 62.980179 28.190405 62.980179 62.980179v472.353841c0.000999 34.742829-28.237351 62.934232-62.980179 62.934232zM700.941536 268.279801c0-104.32038-84.620158-188.941536-188.941536-188.941536-104.369323 0-188.943534 84.621157-188.943534 188.941536v157.451947H700.941536V268.279801z m188.941537 283.412305c0-34.788775-28.191404-62.97918-62.981178-62.97918H197.098105c-34.789774 0-62.980179 28.190405-62.980179 62.980179v346.392484c0 34.74183 28.190405 62.980179 62.980179 62.980179h629.804789c34.789774 0 62.980179-28.238349 62.980179-62.980179V551.693105zM543.48959 799.151981v130.425195h-62.981178V799.150982c-54.197334-14.07173-94.470768-62.88429-94.470768-121.49652 0-69.579549 56.381809-125.961357 125.961357-125.961357s125.960358 56.381809 125.960358 125.961357c0 58.61223-40.271436 107.425789-94.470768 121.49652zM512 614.674283c-34.789774 0-62.980179 28.189406-62.980179 62.980179 0 34.787777 28.189406 62.980179 62.980179 62.980179 34.789774 0 62.980179-28.192403 62.980179-62.980179 0-34.790773-28.190405-62.980179-62.980179-62.980179z" p-id="5625"></path></svg>